<?xml version="1.0" encoding="UTF-8" standalone="no"?>
<!-- Generator: Adobe Illustrator 26.5.0, SVG Export Plug-In . SVG Version: 6.00 Build 0)  -->

<svg
   version="1.1"
   id="Layer_1"
   x="0px"
   y="0px"
   viewBox="0 0 793.70079 1122.5197"
   xml:space="preserve"
   sodipodi:docname="logo.svg"
   width="210mm"
   height="297mm"
   inkscape:version="1.2.1 (9c6d41e, 2022-07-14)"
   xmlns:inkscape="http://www.inkscape.org/namespaces/inkscape"
   xmlns:sodipodi="http://sodipodi.sourceforge.net/DTD/sodipodi-0.dtd"
   xmlns="http://www.w3.org/2000/svg"
   xmlns:svg="http://www.w3.org/2000/svg"><sodipodi:namedview
   id="namedview1576"
   pagecolor="#ffffff"
   bordercolor="#000000"
   borderopacity="0.25"
   inkscape:showpageshadow="2"
   inkscape:pageopacity="0.0"
   inkscape:pagecheckerboard="0"
   inkscape:deskcolor="#d1d1d1"
   showgrid="false"
   inkscape:zoom="0.94449561"
   inkscape:cx="526.20679"
   inkscape:cy="453.15192"
   inkscape:window-width="1512"
   inkscape:window-height="832"
   inkscape:window-x="0"
   inkscape:window-y="33"
   inkscape:window-maximized="0"
   inkscape:current-layer="text2477"
   inkscape:document-units="mm" /><defs
   id="defs3159"><inkscape:path-effect
     effect="spiro"
     id="path-effect38266"
     is_visible="true"
     lpeversion="1" /><inkscape:path-effect
     effect="spiro"
     id="path-effect26465"
     is_visible="true"
     lpeversion="1" /><inkscape:path-effect
     effect="spiro"
     id="path-effect26461"
     is_visible="true"
     lpeversion="1" /><inkscape:path-effect
     effect="spiro"
     id="path-effect26353"
     is_visible="true"
     lpeversion="1" /><inkscape:path-effect
     effect="spiro"
     id="path-effect26349"
     is_visible="true"
     lpeversion="1" /><inkscape:path-effect
     effect="spiro"
     id="path-effect26345"
     is_visible="true"
     lpeversion="1" /><inkscape:path-effect
     effect="spiro"
     id="path-effect18444"
     is_visible="true"
     lpeversion="1" /><inkscape:path-effect
     effect="spiro"
     id="path-effect18248"
     is_visible="true"
     lpeversion="1" /><inkscape:path-effect
     effect="spiro"
     id="path-effect18244"
     is_visible="true"
     lpeversion="1" /><inkscape:path-effect
     effect="spiro"
     id="path-effect18186"
     is_visible="true"
     lpeversion="1" /><inkscape:path-effect
     effect="spiro"
     id="path-effect18182"
     is_visible="true"
     lpeversion="1" /><inkscape:path-effect
     effect="spiro"
     id="path-effect18178"
     is_visible="true"
     lpeversion="1" /><clipPath
     clipPathUnits="userSpaceOnUse"
     id="clipPath46944"><rect
       style="opacity:1;fill:#f8494a;fill-opacity:1;stroke:#000000;stroke-width:7.55906;stroke-dasharray:none"
       id="rect46946"
       width="602.82263"
       height="259.43307"
       x="28.817158"
       y="220.06844" /></clipPath><clipPath
     clipPathUnits="userSpaceOnUse"
     id="clipPath8829"><rect
       style="opacity:0.75;fill:#ffffff;stroke:#000000;stroke-width:0.944882;stroke-dasharray:none"
       id="rect8831"
       width="242.04126"
       height="123.93095"
       x="79.791153"
       y="64.512001" /></clipPath><clipPath
     clipPathUnits="userSpaceOnUse"
     id="clipPath8833"><rect
       style="opacity:0.75;fill:#ffffff;stroke:#000000;stroke-width:1.45511;stroke-dasharray:none"
       id="rect8835"
       width="417.69815"
       height="170.3121"
       x="98.651695"
       y="242.19881" /></clipPath><inkscape:path-effect
     effect="spiro"
     id="path-effect18248-9"
     is_visible="true"
     lpeversion="1" /><inkscape:path-effect
     effect="spiro"
     id="path-effect18248-9-4"
     is_visible="true"
     lpeversion="1" /><inkscape:path-effect
     effect="spiro"
     id="path-effect18248-9-4-4"
     is_visible="true"
     lpeversion="1" /><inkscape:path-effect
     effect="spiro"
     id="path-effect18248-7"
     is_visible="true"
     lpeversion="1" /><inkscape:path-effect
     effect="spiro"
     id="path-effect26353-5"
     is_visible="true"
     lpeversion="1" /><inkscape:path-effect
     effect="spiro"
     id="path-effect26353-5-0"
     is_visible="true"
     lpeversion="1" /><inkscape:path-effect
     effect="spiro"
     id="path-effect26353-5-9"
     is_visible="true"
     lpeversion="1" /><inkscape:path-effect
     effect="spiro"
     id="path-effect26353-3"
     is_visible="true"
     lpeversion="1" /><inkscape:path-effect
     effect="spiro"
     id="path-effect38266-5"
     is_visible="true"
     lpeversion="1" /></defs>
<style
   type="text/css"
   id="style1597">
	.st0{fill:#18BED2;}
	.st1{fill:none;}
	.st2{font-family:'ClashDisplay-Medium';}
	.st3{font-size:89px;}
	.st4{fill:url(#SVGID_1_);}
	.st5{fill-rule:evenodd;clip-rule:evenodd;fill:#92ABA6;}
	.st6{opacity:0.91;fill-rule:evenodd;clip-rule:evenodd;fill:url(#SVGID_00000044169153931771760620000012331813040940204451_);}
	.st7{fill:#51B96F;stroke:#FFFFFF;stroke-width:0.7451;stroke-miterlimit:3.8134;}
	.st8{fill-rule:evenodd;clip-rule:evenodd;fill:#86A8D7;}
	.st9{fill:#628BC8;stroke:#FFFFFF;stroke-width:0.7451;stroke-miterlimit:3.8134;}
	.st10{fill-rule:evenodd;clip-rule:evenodd;fill:#FFFFFF;fill-opacity:0.6145;}
	.st11{fill-rule:evenodd;clip-rule:evenodd;fill:#FFFFFF;fill-opacity:0.5502;}
	.st12{fill-rule:evenodd;clip-rule:evenodd;}
</style>

<path
   sodipodi:type="star"
   style="fill:#f0f0f0;fill-opacity:1;stroke:#000000;stroke-width:0.5;stroke-dasharray:none;stroke-opacity:1"
   id="path58724-5"
   inkscape:flatsided="true"
   sodipodi:sides="6"
   sodipodi:cx="9.4696283"
   sodipodi:cy="59.303547"
   sodipodi:r1="14.638255"
   sodipodi:r2="12.6771"
   sodipodi:arg1="0.5251641"
   sodipodi:arg2="1.0487629"
   inkscape:rounded="0"
   inkscape:randomized="0"
   d="M 22.135257,66.642509 9.4467147,73.941784 -3.2189137,66.602822 -3.1960001,51.964585 9.4925419,44.66531 22.15817,52.004272 Z"
   transform="matrix(30.945936,-0.33912558,0.31858547,32.941139,88.829192,-1435.2604)" /><path
   id="path58724-5-4"
   style="fill:#ffa51e;fill-opacity:1;stroke:#000000;stroke-width:0.31318855;stroke-dasharray:none;stroke-opacity:1"
   d="M 21.06932 61.327574 A 1.4532556 1.3652338 0.5898291 0 0 19.602092 62.677771 A 1.4532556 1.3652338 0.5898291 0 0 21.041212 64.057889 A 1.4532556 1.3652338 0.5898291 0 0 22.139988 63.602044 L 22.142879 61.788588 A 1.4532556 1.3652338 0.5898291 0 0 21.06932 61.327574 z "
   transform="matrix(30.945936,-0.33912558,0.31858547,32.941139,89.125921,-1435.0296)" /><path
   style="fill:none;fill-opacity:1;stroke:#000000;stroke-width:10.0269;stroke-dasharray:none;stroke-dashoffset:0;stroke-opacity:1"
   d="m 160.55697,618.18543 c 11.00636,-0.0196 21.99832,3.23014 31.22463,9.23143 9.22631,6.00128 16.65309,14.73208 21.09709,24.8014 3.86719,8.76237 5.46706,18.34379 6.5751,27.85729 1.10803,9.5135 1.76471,19.11242 3.88926,28.45162 2.58115,11.34638 7.40553,22.30883 14.93148,31.18366 7.52596,8.87484 17.86697,15.55674 29.30417,17.69988 7.09404,1.3293 14.51077,0.90049 21.40434,-1.23755"
   id="path26351-3"
   inkscape:path-effect="#path-effect26353-5"
   inkscape:original-d="m 160.55697,618.18543 c 17.2824,10.93127 34.88154,22.68804 52.32172,34.03283 17.44019,11.34479 6.97662,37.53877 10.46436,56.30891 3.48772,18.77014 29.49081,32.58853 44.23565,48.88354 14.74482,16.29502 14.26995,-0.82554 21.40434,-1.23755" /><path
   style="fill:none;fill-opacity:1;stroke:#000000;stroke-width:10.0269;stroke-dasharray:none;stroke-dashoffset:0;stroke-opacity:1"
   d="m 593.48464,623.91821 c 11.00636,-0.0196 21.99832,3.23014 31.22463,9.23143 9.22631,6.00128 16.65309,14.73208 21.09709,24.8014 3.86719,8.76237 5.46706,18.34379 6.5751,27.85729 1.10803,9.5135 1.76471,19.11242 3.88926,28.45162 2.58115,11.34638 7.40553,22.30883 14.93148,31.18366 7.52596,8.87484 17.86697,15.55674 29.30417,17.69988 7.09404,1.3293 14.51077,0.90049 21.40434,-1.23755"
   id="path26351-3-4"
   inkscape:path-effect="#path-effect26353-5-9"
   inkscape:original-d="m 593.48464,623.91821 c 17.2824,10.93127 34.88154,22.68804 52.32172,34.03283 17.44019,11.34479 6.97662,37.53877 10.46436,56.30891 3.48772,18.77014 29.49081,32.58853 44.23565,48.88354 14.74482,16.29502 14.26995,-0.82554 21.40434,-1.23755" /><path
   style="fill:none;fill-opacity:1;stroke:#000000;stroke-width:10.0269;stroke-dasharray:none;stroke-dashoffset:0;stroke-opacity:1"
   d="m 380.18248,483.21312 c 11.00636,-0.0196 21.99832,3.23014 31.22463,9.23143 9.22631,6.00128 16.65309,14.73208 21.09709,24.8014 3.86719,8.76237 5.46706,18.34379 6.5751,27.85729 1.10803,9.5135 1.76471,19.11242 3.88926,28.45162 2.58115,11.34638 7.40553,22.30883 14.93148,31.18366 7.52596,8.87484 17.86697,15.55674 29.30417,17.69988 7.09404,1.3293 14.51077,0.90049 21.40434,-1.23755"
   id="path26351-3-7"
   inkscape:path-effect="#path-effect26353-5-0"
   inkscape:original-d="m 380.18248,483.21312 c 17.2824,10.93127 34.88154,22.68804 52.32172,34.03283 17.44019,11.34479 6.97662,37.53877 10.46436,56.30891 3.48772,18.77014 29.49081,32.58853 44.23565,48.88354 14.74482,16.29502 14.26995,-0.82554 21.40434,-1.23755" /><rect
   x="159.3"
   y="408.79999"
   class="st1"
   width="284.39999"
   height="66.5"
   id="rect3079" />
<text
   class="st2 st3"
   id="text3081"
   x="179.4017"
   y="468.3924" />
<linearGradient
   id="SVGID_1_"
   gradientUnits="userSpaceOnUse"
   x1="133.05859"
   y1="392.0741"
   x2="470.04819"
   y2="392.0741">
	<stop
   offset="0"
   style="stop-color:#0B1E2C"
   id="stop3083" />
	<stop
   offset="1"
   style="stop-color:#0d6c9f;stop-opacity:1;"
   id="stop3085" />
</linearGradient>



<g
   aria-label="ringbp"
   id="text2477"
   style="font-size:133.333px;font-family:Futura;-inkscape-font-specification:Futura;text-align:center;text-anchor:middle;stroke-width:3.77953;stroke-dasharray:11.3387, 3.77953"><path
     d="m 242.8977,313.84416 q 0,5.59894 0.26042,7.29164 h -16.2109 v -68.03368 h 15.95048 v 5.01301 q 5.53384,-6.31509 11.58851,-6.31509 6.11978,0 9.63539,1.49739 l -1.17187,17.51298 -0.26041,0.19531 q -2.27864,-4.03645 -9.44008,-4.03645 -2.73437,0 -5.59895,1.88802 -2.79947,1.82291 -4.75259,4.8828 z"
     style="font-family:'Hammersmith One';-inkscape-font-specification:'Hammersmith One'"
     id="path2935" /><path
     d="m 269.98096,233.70113 q 5.20832,-8.138 10.87237,-14.32288 l 13.99736,11.00258 q -2.79947,3.45051 -5.20832,6.77081 0,0 -5.01301,7.09634 z m 17.12236,80.14303 q 0,5.59894 0.26041,7.29164 h -16.53641 v -68.03368 h 16.276 z"
     style="font-family:'Hammersmith One';-inkscape-font-specification:'Hammersmith One'"
     id="path2937" /><path
     d="m 322.585,312.80249 q 0,5.72915 0.52083,8.33331 h -16.3411 V 253.10212 H 322.585 v 5.79426 q 8.59373,-7.09634 18.35933,-7.09634 10.67705,0 17.05724,7.29165 6.3802,7.22654 6.3802,19.07547 v 25.9114 q 0,11.00257 0.32552,13.21611 0.32552,2.21353 0.84635,2.86457 0.58593,0.65104 0.97656,1.17188 l -0.13021,0.26041 q -5.27342,-0.45573 -7.68227,-0.45573 h -4.55728 q -2.08333,0 -5.59895,0.19532 v -35.48168 q 0,-19.07548 -11.58851,-19.07548 -8.59373,0 -14.38798,8.85415 z"
     style="font-family:'Hammersmith One';-inkscape-font-specification:'Hammersmith One'"
     id="path2939" /><path
     d="m 401.29573,303.03689 q -2.40884,3.1901 -2.40884,5.07811 0,1.82292 0.58593,2.86458 0.58594,0.97656 2.53906,1.88802 4.29686,2.01822 14.12757,3.58072 9.8307,1.49739 15.36454,3.77603 5.59894,2.27864 9.04946,5.59894 6.44529,6.31509 6.44529,17.9036 0,11.58851 -8.138,17.77339 -8.138,6.24999 -24.15358,6.24999 -16.14579,0 -26.0416,-7.03123 -9.89581,-7.03124 -10.15623,-18.68485 -0.39062,-13.54163 10.61196,-19.59631 -2.99479,-2.47395 -4.03645,-5.79425 -0.97656,-3.38541 -0.97656,-7.68227 0,-7.22655 6.31509,-12.23956 -7.35676,-6.96612 -7.35676,-17.31766 0,-11.58851 8.33332,-19.40099 8.78904,-8.20311 22.7864,-8.20311 7.35675,0 13.80204,2.73437 8.46352,-3.58072 12.43487,-6.24998 3.97134,-2.73437 5.07811,-3.97135 l 0.39062,0.0651 q 0.58594,1.56249 1.36719,4.42707 l 1.17187,4.68749 q 1.5625,5.79425 1.88802,7.94268 -2.86458,3.125 -10.09112,4.42708 2.79947,5.40363 2.79947,11.4583 0,6.05467 -2.08333,11.00258 -2.08333,4.8828 -5.92446,8.59373 -8.52863,8.00779 -21.74474,8.00779 -6.4453,0 -11.97914,-1.88802 z m -1.6927,-29.2968 q -0.91146,2.34375 -0.91146,4.75259 0,2.40885 0.97656,4.62239 1.04167,2.21353 2.99479,3.97134 4.36197,3.90624 11.3932,3.90624 5.33853,0 9.24477,-3.58072 4.10155,-3.90624 4.10155,-9.37497 0,-5.53384 -3.71093,-8.91925 -3.71093,-3.38541 -10.22133,-3.38541 -10.74216,0 -13.86715,8.00779 z m 15.95048,80.20813 q 16.01558,0 16.01558,-11.19789 0,-5.33853 -5.20832,-8.59373 -5.85936,-3.71092 -20.11713,-5.79425 l -3.38541,-0.58594 q -4.29686,2.27864 -6.31509,5.85936 -2.01822,3.58072 -2.01822,6.77082 0.0651,3.2552 1.56249,5.59894 1.4974,2.34375 4.16666,4.10155 5.92446,3.84114 15.29944,3.84114 z"
     style="font-family:'Hammersmith One';-inkscape-font-specification:'Hammersmith One'"
     id="path2941" /><path
     d="m 477.3372,255.57607 q 7.29165,-3.77603 14.90882,-3.77603 7.61717,0 13.0859,2.40885 5.53384,2.34374 9.7005,6.77082 9.04945,9.8307 9.04945,24.86973 0,16.47131 -9.8307,26.56243 -9.44008,9.70049 -23.50254,9.70049 -12.36976,0 -20.37756,-6.44529 -8.98435,-7.29165 -8.98435,-20.11714 v -71.28888 h 15.95048 z m 0,39.77855 q 0,11.4583 14.25778,11.4583 6.96613,0 11.71872,-6.11977 4.81769,-6.24999 4.81769,-15.55986 0,-9.37497 -5.07811,-14.12757 -4.55728,-4.23176 -12.23955,-4.23176 -4.62238,0 -10.22133,3.125 -1.75781,0.97656 -3.2552,2.14843 z"
     style="font-family:'Hammersmith One';-inkscape-font-specification:'Hammersmith One'"
     id="path2943" /><path
     d="m 555.26671,319.76862 v 19.14058 q 0,5.59894 0.26042,7.29164 h -16.2109 v -93.09872 h 15.95048 v 4.23176 q 7.87759,-5.53384 15.10413,-5.53384 7.22655,0 12.82549,2.01823 5.59895,2.01822 9.83071,6.24998 9.30987,9.17967 9.30987,26.17181 0,11.26299 -5.27343,20.11714 -4.49217,7.48696 -12.43486,11.97913 -7.03123,3.97135 -15.23434,3.97135 -8.2031,0 -14.12757,-2.53906 z m 0,-16.40621 q 4.94791,4.16666 12.82549,4.16666 12.8906,0 16.66663,-12.43487 1.30208,-4.23176 1.30208,-9.04945 0,-4.8828 -0.91146,-7.74738 -0.91145,-2.92968 -2.40885,-5.01301 -1.43228,-2.14843 -3.2552,-3.51561 -1.82291,-1.43229 -3.71092,-2.27864 -3.32031,-1.4974 -6.83593,-1.4974 -3.51561,0 -7.29164,1.62761 -3.77604,1.6276 -6.3802,4.36196 z"
     style="font-family:'Hammersmith One';-inkscape-font-specification:'Hammersmith One'"
     id="path2945" /></g><circle
   style="fill:#c81e21;fill-opacity:1;stroke:#000000;stroke-width:10;stroke-dasharray:none;stroke-dashoffset:0;stroke-opacity:1"
   id="path2791"
   cx="111.60085"
   cy="611.55322"
   r="44.974739" /><path
   style="fill:none;fill-opacity:1;stroke:#000000;stroke-width:10.0284;stroke-dasharray:none;stroke-dashoffset:0;stroke-opacity:1"
   d="m 158.07214,618.1213 c 11.00944,0.024 22.00576,-3.22338 31.23592,-9.22441 9.23017,-6.00102 16.66024,-14.73363 21.10572,-24.80567 3.86713,-8.7617 5.46716,-18.3424 6.57579,-27.85518 1.10863,-9.51277 1.76636,-19.11102 3.89255,-28.44918 2.58361,-11.34713 7.41205,-22.30935 14.94134,-31.18303 7.52929,-8.87368 17.8726,-15.55361 29.31114,-17.69656 7.09675,-1.32954 14.51616,-0.90076 21.4125,1.23745"
   id="path26351"
   inkscape:path-effect="#path-effect26353"
   inkscape:original-d="m 158.07214,618.1213 c 17.28899,-10.93038 34.89482,-22.68622 52.34164,-34.03008 17.44683,-11.34388 6.97928,-37.53574 10.46834,-56.30436 3.48906,-18.76862 29.50204,-32.5859 44.25248,-48.87959 14.75044,-16.2937 14.27539,0.82547 21.4125,1.23745" /><path
   style="fill:none;fill-opacity:1;stroke:#000000;stroke-width:10.0284;stroke-dasharray:none;stroke-dashoffset:0;stroke-opacity:1"
   d="m 590.90518,624.8406 c 11.00944,0.024 22.00576,-3.22338 31.23592,-9.22441 9.23017,-6.00102 16.66024,-14.73363 21.10572,-24.80567 3.86713,-8.7617 5.46716,-18.3424 6.57579,-27.85518 1.10863,-9.51277 1.76636,-19.11102 3.89255,-28.44918 2.58361,-11.34713 7.41205,-22.30935 14.94134,-31.18303 7.52929,-8.87368 17.8726,-15.55361 29.31114,-17.69656 7.09675,-1.32954 14.51616,-0.90076 21.4125,1.23745"
   id="path26351-0"
   inkscape:path-effect="#path-effect26353-3"
   inkscape:original-d="m 590.90518,624.8406 c 17.28899,-10.93038 34.89482,-22.68622 52.34164,-34.03008 17.44683,-11.34388 6.97928,-37.53574 10.46834,-56.30436 3.48906,-18.76862 29.50204,-32.5859 44.25248,-48.87959 14.75044,-16.2937 14.27539,0.82547 21.4125,1.23745" /><path
   id="path58724-5-9"
   style="fill:#37a5f0;fill-opacity:1;stroke:#000000;stroke-width:0.31318855;stroke-dasharray:none;stroke-opacity:1"
   d="M 21.596157 56.288448 A 2.2562311 2.1195738 0.5898291 0 0 19.318248 58.384663 A 2.2562311 2.1195738 0.5898291 0 0 21.552519 60.527331 A 2.2562311 2.1195738 0.5898291 0 0 22.144942 60.456588 L 22.151396 56.359681 A 2.2562311 2.1195738 0.5898291 0 0 21.596157 56.288448 z "
   transform="matrix(30.945936,-0.33912558,0.31858547,32.941139,87.455183,-1434.497)" /><circle
   style="fill:#c81e21;fill-opacity:1;stroke:#000000;stroke-width:10;stroke-dasharray:none;stroke-dashoffset:0;stroke-opacity:1"
   id="path2791-7"
   cx="331.1452"
   cy="482.16962"
   r="44.974739" /><path
   style="fill:none;fill-opacity:1;stroke:#000000;stroke-width:10;stroke-dasharray:none;stroke-dashoffset:0;stroke-opacity:1"
   d="M 595.51864,623.07477 H 714.92855"
   id="path26459"
   inkscape:path-effect="#path-effect26461"
   inkscape:original-d="m 595.51864,623.07477 c 40.3146,0.001 79.6076,0.001 119.40991,0" /><circle
   style="fill:#c81e21;fill-opacity:1;stroke:#000000;stroke-width:10;stroke-dasharray:none;stroke-dashoffset:0;stroke-opacity:1"
   id="path2791-7-3"
   cx="546.18433"
   cy="623.81042"
   r="44.974739" /><ellipse
   style="fill:#37a5f0;fill-opacity:1;stroke:#000000;stroke-width:10.3502;stroke-dasharray:none;stroke-dashoffset:0;stroke-opacity:1"
   id="path2791-1-0"
   cx="357.94717"
   cy="762.0434"
   rx="69.824883"
   ry="69.824875" /><circle
   style="fill:#7dd2aa;fill-opacity:1;stroke:#000000;stroke-width:10.0505;stroke-dasharray:none;stroke-dashoffset:0;stroke-opacity:1"
   id="path2791-83"
   cx="358.72833"
   cy="763.26257"
   r="44.974739" /><circle
   style="fill:#faa51e;fill-opacity:1;stroke:#000000;stroke-width:5.72055;stroke-dasharray:none;stroke-dashoffset:0;stroke-opacity:1"
   id="path18551"
   cx="278.85791"
   cy="-225.92839"
   transform="scale(1,-1)"
   r="17.139727" /><path
   id="path2791-7-5"
   style="fill:#c81e21;fill-opacity:1;stroke:#000000;stroke-width:10;stroke-dasharray:none;stroke-dashoffset:0;stroke-opacity:1"
   d="M 762.83203 723.45898 A 44.974739 44.974739 0 0 0 717.85742 768.43359 A 44.974739 44.974739 0 0 0 728.36133 797.24414 L 794.99609 755.46289 L 794.84375 736.84961 A 44.974739 44.974739 0 0 0 762.83203 723.45898 z " /><path
   id="path58724-5-0"
   style="fill:#7dd2aa;fill-opacity:1;stroke:#000000;stroke-width:0.31318855;stroke-dasharray:none;stroke-opacity:1"
   d="M 21.661521 57.053157 A 1.4532556 1.4357769 0.58981084 0 0 20.193566 58.473904 A 1.4532556 1.4357769 0.58981084 0 0 21.63196 59.924571 A 1.4532556 1.4357769 0.58981084 0 0 22.145952 59.833514 L 22.150118 57.142144 A 1.4532556 1.4357769 0.58981084 0 0 21.661521 57.053157 z "
   transform="matrix(30.945936,-0.33912558,0.31858547,32.941139,85.970063,-1435.9211)" /><path
   style="fill:#7dd2aa;fill-opacity:1;stroke:#000000;stroke-width:9.91006;stroke-dasharray:none;stroke-dashoffset:0;stroke-opacity:1"
   d="m 190.03821,354.95492 179.93437,1.3874"
   id="path38264"
   inkscape:path-effect="#path-effect38266"
   inkscape:original-d="m 190.03821,354.95492 c 59.97905,0.46354 119.95717,0.926 179.93437,1.3874" /><path
   style="fill:#7dd2aa;fill-opacity:1;stroke:#000000;stroke-width:9.77784;stroke-dasharray:none;stroke-dashoffset:0;stroke-opacity:1"
   d="m 455.0323,354.88881 159.92461,1.51962"
   id="path38264-3"
   inkscape:path-effect="#path-effect38266-5"
   inkscape:original-d="m 455.0323,354.88881 c 53.30903,0.50772 106.61723,1.01425 159.92461,1.51962" /></svg>
